<?xml version="1.0" encoding="UTF-8" standalone="no"?>
<svg
   xmlns:dc="http://purl.org/dc/elements/1.1/"
   xmlns:cc="http://creativecommons.org/ns#"
   xmlns:rdf="http://www.w3.org/1999/02/22-rdf-syntax-ns#"
   xmlns:svg="http://www.w3.org/2000/svg"
   xmlns="http://www.w3.org/2000/svg"
   xmlns:sodipodi="http://sodipodi.sourceforge.net/DTD/sodipodi-0.dtd"
   xmlns:inkscape="http://www.inkscape.org/namespaces/inkscape"
   width="4.16667in"
   height="4.16667in"
   viewBox="0 0 300 300"
   version="1.1"
   id="svg825"
   sodipodi:docname="logo.svg"
   inkscape:version="0.92.2 (5c3e80d, 2017-08-06)">
  <metadata
     id="metadata831">
    <rdf:RDF>
      <cc:Work
         rdf:about="">
        <dc:format>image/svg+xml</dc:format>
        <dc:type
           rdf:resource="http://purl.org/dc/dcmitype/StillImage" />
      </cc:Work>
    </rdf:RDF>
  </metadata>
  <defs
     id="defs829" />
  <sodipodi:namedview
     pagecolor="#ffffff"
     bordercolor="#666666"
     borderopacity="1"
     objecttolerance="10"
     gridtolerance="10"
     guidetolerance="10"
     inkscape:pageopacity="0"
     inkscape:pageshadow="2"
     inkscape:window-width="1920"
     inkscape:window-height="1018"
     id="namedview827"
     showgrid="false"
     inkscape:zoom="1.9774985"
     inkscape:cx="201.26438"
     inkscape:cy="200.00015"
     inkscape:window-x="-8"
     inkscape:window-y="-8"
     inkscape:window-maximized="1"
     inkscape:current-layer="svg825" />
  <path
     id="Working Path"
     fill="none"
     stroke="black"
     stroke-width="1"
     d="M 85.60,287.00            C 85.60,287.00 87.40,277.40 87.40,277.40              87.40,277.40 76.80,262.80 76.80,262.80              76.80,262.80 77.40,251.60 77.40,251.60              77.40,251.60 72.00,244.60 72.00,244.60              72.00,244.60 81.00,238.80 81.00,238.80              81.00,238.80 81.00,233.60 81.00,233.60              81.00,233.60 88.40,224.60 88.40,224.60              88.40,224.60 70.00,223.40 70.00,223.40              70.00,223.40 68.60,218.00 68.60,218.00              68.60,218.00 69.40,204.00 69.40,204.00              69.40,204.00 72.60,197.20 72.60,197.20              72.60,197.20 68.40,195.80 68.40,195.80              68.40,195.80 68.80,148.00 68.80,148.00              68.80,148.00 66.20,146.20 66.20,146.20              66.20,146.20 74.40,99.40 74.40,99.40              74.40,99.40 77.60,102.60 77.60,102.60              77.60,102.60 77.00,33.40 77.00,33.40              77.00,33.40 73.20,6.00 73.20,6.00              73.20,6.00 63.40,20.80 63.40,20.80              63.40,20.80 60.60,41.20 60.60,41.20              60.60,41.20 58.40,74.20 58.40,74.20              58.40,74.20 47.80,85.20 47.80,85.20              47.80,85.20 49.20,90.60 49.20,90.60              49.20,90.60 56.00,91.80 56.00,91.80              56.00,91.80 50.00,116.00 50.00,116.00              50.00,116.00 43.60,113.00 43.60,113.00              43.60,113.00 44.60,127.00 44.60,127.00              44.60,127.00 42.40,160.40 42.40,160.40              42.40,160.40 40.60,177.60 40.60,177.60              40.60,177.60 37.60,182.40 37.60,182.40              37.60,182.40 36.60,197.20 36.60,197.20              36.60,197.20 42.60,205.80 42.60,205.80              42.60,205.80 40.00,195.40 40.00,195.40              40.00,195.40 44.00,195.40 44.00,195.40              44.00,195.40 47.60,203.20 47.60,203.20              47.60,203.20 46.80,237.40 46.80,237.40              46.80,237.40 43.60,249.40 43.60,249.40              43.60,249.40 38.80,235.60 38.80,235.60              38.80,235.60 31.40,210.60 31.40,210.60              31.40,210.60 26.60,206.00 26.60,206.00              26.60,206.00 25.20,179.60 25.20,179.60              25.20,179.60 24.00,161.40 24.00,161.40              24.00,161.40 22.20,138.40 22.20,138.40              22.20,138.40 23.20,124.40 23.20,124.40              23.20,124.40 21.40,119.40 21.40,119.40              21.40,119.40 21.20,88.20 21.20,88.20              21.20,88.20 21.40,83.40 21.40,83.40              21.40,83.40 11.80,63.60 11.80,63.60              11.80,63.60 13.80,80.00 13.80,80.00              13.80,80.00 14.00,93.20 14.00,93.20              14.00,93.20 10.00,97.17 10.00,97.17              10.00,97.17 9.67,101.50 9.67,101.50              9.67,101.50 11.33,105.83 11.33,105.83              11.33,105.83 10.50,113.33 10.50,113.33              10.50,113.33 10.33,119.33 10.33,119.33              10.33,119.33 12.83,126.50 12.83,126.50              12.83,126.50 15.17,135.00 15.17,135.00              15.17,135.00 13.17,138.67 13.17,138.67              13.17,138.67 10.67,138.67 10.67,138.67              10.67,138.67 10.33,147.00 10.33,147.00              10.33,147.00 9.17,163.33 9.17,163.33              9.17,163.33 9.83,170.67 9.83,170.67              9.83,170.67 11.17,177.50 11.17,177.50              11.17,177.50 11.33,185.50 11.33,185.50              11.33,185.50 11.17,193.83 11.17,193.83              11.17,193.83 11.17,201.67 11.17,201.67              11.17,201.67 10.17,205.00 10.17,205.00              10.17,205.00 9.00,210.83 9.00,210.83              9.00,210.83 9.00,213.33 9.00,213.33              9.00,213.33 17.00,223.17 17.00,223.17              17.00,223.17 25.50,239.33 25.50,239.33              25.50,239.33 31.33,248.00 31.33,248.00              31.33,248.00 35.17,241.33 35.17,241.33              35.17,241.33 39.17,246.17 39.17,246.17              39.17,246.17 41.33,253.67 41.33,253.67              41.33,253.67 41.83,257.00 41.83,257.00              41.83,257.00 41.83,258.50 41.83,258.50              41.83,258.50 55.00,268.83 55.00,268.83              55.00,268.83 65.83,277.00 65.83,277.00              65.83,277.00 75.67,284.33 75.67,284.33              75.67,284.33 79.17,286.17 79.17,286.17              79.17,286.17 78.33,275.83 78.33,275.83              78.33,275.83 82.33,277.17 82.33,277.17              82.33,277.17 83.50,279.00 83.50,279.00              83.50,279.00 83.50,285.17 83.50,285.17              83.50,285.17 83.50,286.17 83.50,286.17              83.50,286.17 84.00,288.00 84.00,288.00              84.00,288.00 85.60,287.00 85.60,287.00 Z            M 99.75,284.75            C 99.75,284.75 100.75,276.00 100.75,276.00              100.75,276.00 114.75,289.50 114.75,289.50              114.75,289.50 115.50,296.50 115.50,296.50              115.50,296.50 133.00,299.25 133.00,299.25              133.00,299.25 137.50,272.50 137.50,272.50              137.50,272.50 131.75,274.00 131.75,274.00              131.75,274.00 128.00,259.75 128.00,259.75              128.00,259.75 135.25,251.00 135.25,251.00              135.25,251.00 125.75,255.00 125.75,255.00              125.75,255.00 121.00,249.50 121.00,249.50              121.00,249.50 124.75,238.75 124.75,238.75              124.75,238.75 126.75,232.00 126.75,232.00              126.75,232.00 121.25,222.75 121.25,222.75              121.25,222.75 123.75,215.75 123.75,215.75              123.75,215.75 119.00,207.00 119.00,207.00              119.00,207.00 118.00,195.25 118.00,195.25              118.00,195.25 108.50,186.50 108.50,186.50              108.50,186.50 110.50,176.25 110.50,176.25              110.50,176.25 119.75,158.75 119.75,158.75              119.75,158.75 111.75,158.00 111.75,158.00              111.75,158.00 112.50,153.50 112.50,153.50              112.50,153.50 119.25,150.00 119.25,150.00              119.25,150.00 116.50,139.50 116.50,139.50              116.50,139.50 117.50,116.75 117.50,116.75              117.50,116.75 125.00,123.00 125.00,123.00              125.00,123.00 119.50,113.75 119.50,113.75              119.50,113.75 120.75,99.00 120.75,99.00              120.75,99.00 120.00,81.75 120.00,81.75              120.00,81.75 117.25,76.50 117.25,76.50              117.25,76.50 116.00,94.50 116.00,94.50              116.00,94.50 111.75,103.50 111.75,103.50              111.75,103.50 110.50,114.25 110.50,114.25              110.50,114.25 98.00,125.25 98.00,125.25              98.00,125.25 97.75,130.50 97.75,130.50              97.75,130.50 85.25,146.75 85.25,146.75              85.25,146.75 85.00,171.25 85.00,171.25              85.00,171.25 86.00,175.75 86.00,175.75              86.00,175.75 91.50,165.25 91.50,165.25              91.50,165.25 102.75,171.00 102.75,171.00              102.75,171.00 97.50,178.25 97.50,178.25              97.50,178.25 97.00,189.00 97.00,189.00              97.00,189.00 99.25,198.75 99.25,198.75              99.25,198.75 96.50,204.75 96.50,204.75              96.50,204.75 96.75,213.75 96.75,213.75              96.75,213.75 100.25,218.50 100.25,218.50              100.25,218.50 100.50,225.50 100.50,225.50              100.50,225.50 92.25,238.75 92.25,238.75              92.25,238.75 100.00,237.75 100.00,237.75              100.00,237.75 101.75,242.50 101.75,242.50              101.75,242.50 99.50,259.75 99.50,259.75              99.50,259.75 95.50,274.50 95.50,274.50              95.50,274.50 99.75,284.75 99.75,284.75 Z            M 179.75,294.75            C 179.75,294.75 165.25,299.25 165.25,299.25              165.25,299.25 155.00,275.75 155.00,275.75              155.00,275.75 154.00,271.25 154.00,271.25              154.00,271.25 159.00,273.00 159.00,273.00              159.00,273.00 159.50,258.75 159.50,258.75              159.50,258.75 155.50,242.00 155.50,242.00              155.50,242.00 161.25,249.75 161.25,249.75              161.25,249.75 163.75,254.75 163.75,254.75              163.75,254.75 166.75,254.75 166.75,254.75              166.75,254.75 168.25,249.50 168.25,249.50              168.25,249.50 162.75,240.25 162.75,240.25              162.75,240.25 165.00,233.25 165.00,233.25              165.00,233.25 165.00,215.50 165.00,215.50              165.00,215.50 171.25,206.00 171.25,206.00              171.25,206.00 172.75,201.00 172.75,201.00              172.75,201.00 179.50,195.25 179.50,195.25              179.50,195.25 180.50,182.50 180.50,182.50              180.50,182.50 175.00,173.25 175.00,173.25              175.00,173.25 175.50,167.00 175.50,167.00              175.50,167.00 182.50,167.25 182.50,167.25              182.50,167.25 177.25,161.75 177.25,161.75              177.25,161.75 177.50,142.00 177.50,142.00              177.50,142.00 172.25,130.00 172.25,130.00              172.25,130.00 164.50,113.50 164.50,113.50              164.50,113.50 179.00,128.25 179.00,128.25              179.00,128.25 188.50,138.25 188.50,138.25              188.50,138.25 192.25,142.50 192.25,142.50              192.25,142.50 193.00,147.00 193.00,147.00              193.00,147.00 194.50,152.25 194.50,152.25              194.50,152.25 196.25,153.25 196.25,153.25              196.25,153.25 198.50,153.00 198.50,153.00              198.50,153.00 204.25,158.00 204.25,158.00              204.25,158.00 207.75,165.75 207.75,165.75              207.75,165.75 210.00,173.50 210.00,173.50              210.00,173.50 207.25,186.00 207.25,186.00              207.25,186.00 205.75,189.00 205.75,189.00              205.75,189.00 203.00,180.00 203.00,180.00              203.00,180.00 200.50,182.75 200.50,182.75              200.50,182.75 196.75,190.50 196.75,190.50              196.75,190.50 195.50,197.25 195.50,197.25              195.50,197.25 195.25,204.50 195.25,204.50              195.25,204.50 195.25,210.00 195.25,210.00              195.25,210.00 199.25,211.50 199.25,211.50              199.25,211.50 200.50,215.50 200.50,215.50              200.50,215.50 201.00,220.50 201.00,220.50              201.00,220.50 203.00,223.00 203.00,223.00              203.00,223.00 204.50,225.50 205.00,226.50              205.50,227.50 205.75,228.50 206.25,229.75              206.75,231.00 206.75,232.25 206.75,232.25              206.75,232.25 201.25,229.00 201.25,229.00              201.25,229.00 195.50,222.75 195.50,222.75              195.50,222.75 192.75,221.50 192.75,221.50              192.75,221.50 188.50,225.00 188.50,225.00              188.50,225.00 187.75,230.50 187.75,230.50              187.75,230.50 191.25,233.50 191.25,233.50              191.25,233.50 195.00,237.00 195.00,237.00              195.00,237.00 196.75,238.50 196.75,238.50              196.75,238.50 196.75,239.75 196.75,239.75              196.75,239.75 191.75,240.75 191.75,240.75              191.75,240.75 189.00,240.50 189.00,240.50              189.00,240.50 187.25,247.25 187.25,247.25              187.25,247.25 190.50,250.50 190.50,250.50              190.50,250.50 191.75,253.00 191.75,253.00              191.75,253.00 193.00,254.50 193.00,254.50              193.00,254.50 193.50,257.25 193.50,258.25              193.50,259.25 194.00,264.25 194.00,264.25              194.00,264.25 193.75,271.25 193.75,271.25              193.75,271.25 193.75,276.00 193.75,276.00              193.75,276.00 192.75,282.75 192.75,282.75              192.75,282.75 190.75,287.25 190.75,287.25              190.75,287.25 190.00,279.50 190.00,279.50              190.00,279.50 189.50,272.75 189.50,272.75              189.50,272.75 184.25,279.25 184.25,279.25              184.25,279.25 180.25,283.50 180.00,285.00              179.75,286.50 179.25,288.75 179.25,288.75              179.25,288.75 179.75,294.75 179.75,294.75 Z            M 207.75,290.50            C 207.75,290.50 207.00,275.00 207.00,275.00              207.00,275.00 209.75,276.25 209.75,276.25              209.75,276.25 211.25,284.75 211.25,284.75              211.25,284.75 222.75,280.50 222.75,280.50              222.75,280.50 234.50,273.75 234.50,273.75              234.50,273.75 243.00,255.00 243.00,255.00              243.00,255.00 249.00,245.50 249.00,245.50              249.00,245.50 256.00,232.75 256.00,232.75              256.00,232.75 256.50,243.25 256.50,243.25              256.50,243.25 255.50,250.25 255.50,250.25              255.50,250.25 255.75,253.25 255.75,253.25              255.75,253.25 265.50,244.00 265.50,244.00              265.50,244.00 268.75,235.50 268.75,235.50              268.75,235.50 275.50,223.50 275.50,223.50              275.50,223.50 277.75,218.50 277.75,218.50              277.75,218.50 279.25,221.00 279.25,221.00              279.25,221.00 282.25,213.75 282.25,213.75              282.25,213.75 287.25,204.00 287.25,204.00              287.25,204.00 291.50,196.00 291.50,196.00              291.50,196.00 291.50,189.75 291.50,189.75              291.50,189.75 288.00,187.00 288.00,187.00              288.00,187.00 287.50,176.75 287.50,176.75              287.50,176.75 287.25,166.25 287.25,166.25              287.25,166.25 288.75,154.50 288.75,154.50              288.75,154.50 291.00,145.00 291.00,145.00              291.00,145.00 289.50,141.00 289.50,141.00              289.50,141.00 288.75,134.00 288.75,134.00              288.75,134.00 286.75,131.00 286.75,131.00              286.75,131.00 283.50,134.00 283.50,134.00              283.50,134.00 282.00,133.00 282.00,133.00              282.00,133.00 282.00,125.25 282.00,125.25              282.00,125.25 282.00,120.50 282.00,120.50              282.00,120.50 285.00,114.25 285.00,114.25              285.00,114.25 286.25,110.00 286.25,110.00              286.25,110.00 282.75,104.75 282.75,104.75              282.75,104.75 282.75,98.00 282.75,98.00              282.75,98.00 281.75,91.75 281.75,91.75              281.75,91.75 277.25,88.50 277.25,88.50              277.25,88.50 275.50,83.50 275.50,82.00              275.50,80.50 275.25,78.00 275.25,78.00              275.25,78.00 274.25,63.75 274.25,63.75              274.25,63.75 271.25,57.75 271.25,57.75              271.25,57.75 269.25,55.75 269.25,55.75              269.25,55.75 268.75,62.50 268.75,62.50              268.75,62.50 267.25,88.75 267.25,88.75              267.25,88.75 268.25,95.00 268.25,95.00              268.25,95.00 270.25,98.25 270.25,98.25              270.25,98.25 271.50,100.75 271.50,100.75              271.50,100.75 272.50,110.00 272.50,110.00              272.50,110.00 272.25,117.00 272.25,117.00              272.25,117.00 272.25,125.25 272.25,125.25              272.25,125.25 272.25,132.25 272.25,132.25              272.25,132.25 273.00,138.00 273.00,138.00              273.00,138.00 272.75,148.50 272.75,148.50              272.75,148.50 272.25,157.75 272.25,157.75              272.25,157.75 272.25,167.25 272.25,167.25              272.25,167.25 272.50,173.75 272.50,173.75              272.50,173.75 272.00,183.00 272.00,183.00              272.00,183.00 269.50,195.75 269.50,195.75              269.50,195.75 267.00,200.75 267.00,200.75              267.00,200.75 261.25,208.50 261.25,208.50              261.25,208.50 255.50,213.50 255.50,213.50              255.50,213.50 255.50,219.00 255.50,219.00              255.50,219.00 254.00,225.50 254.00,225.50              254.00,225.50 251.50,232.25 251.50,232.25              251.50,232.25 249.50,238.00 249.50,238.00              249.50,238.00 246.00,243.00 246.00,243.00              246.00,243.00 243.25,241.00 243.25,241.00              243.25,241.00 241.50,236.75 241.50,236.75              241.50,236.75 238.25,229.75 238.25,229.75              238.25,229.75 237.00,224.50 237.00,224.50              237.00,224.50 241.00,216.00 241.50,215.00              242.00,214.00 248.25,207.75 248.25,207.75              248.25,207.75 252.50,204.25 252.50,204.25              252.50,204.25 256.00,199.25 256.00,199.25              256.00,199.25 258.00,186.00 258.00,186.00              258.00,186.00 260.00,183.25 260.00,183.25              260.00,183.25 254.25,180.50 254.25,180.50              254.25,180.50 252.25,179.50 252.25,178.50              252.25,177.50 252.25,173.50 252.25,173.50              252.25,173.50 247.00,171.25 247.00,171.25              247.00,171.25 247.50,166.75 247.50,166.75              247.50,166.75 249.25,162.00 249.25,162.00              249.25,162.00 249.50,158.75 249.25,157.50              249.00,156.25 248.25,152.25 248.25,152.25              248.25,152.25 244.75,144.75 244.75,144.75              244.75,144.75 242.50,135.00 242.50,134.00              242.50,133.00 242.25,129.00 242.25,129.00              242.25,129.00 243.25,127.50 243.25,127.50              243.25,127.50 239.50,123.00 239.50,123.00              239.50,123.00 239.25,117.00 239.25,117.00              239.25,117.00 242.50,113.25 242.50,113.25              242.50,113.25 239.75,104.50 239.75,104.50              239.75,104.50 234.75,102.75 234.75,102.75              234.75,102.75 234.25,99.00 234.25,99.00              234.25,99.00 229.50,95.25 229.50,95.25              229.50,95.25 226.25,87.00 226.25,87.00              226.25,87.00 223.75,82.25 223.75,82.25              223.75,82.25 220.50,79.00 220.50,79.00              220.50,79.00 219.50,72.00 219.50,72.00              219.50,72.00 217.00,61.25 217.00,61.25              217.00,61.25 211.25,55.25 211.25,55.25              211.25,55.25 204.75,43.25 204.75,43.25              204.75,43.25 199.00,31.50 199.00,31.50              199.00,31.50 190.25,18.25 190.25,18.25              190.25,18.25 179.75,7.75 179.75,7.75              179.75,7.75 178.25,4.50 178.25,4.50              178.25,4.50 177.50,12.00 177.50,12.00              177.50,12.00 180.50,17.25 180.50,17.25              180.50,17.25 184.50,24.00 184.50,24.00              184.50,24.00 186.75,33.25 186.75,33.25              186.75,33.25 188.00,40.25 188.00,40.25              188.00,40.25 190.25,49.75 190.25,49.75              190.25,49.75 191.25,54.50 191.25,54.50              191.25,54.50 193.00,60.50 193.00,60.50              193.00,60.50 198.00,64.25 198.00,64.25              198.00,64.25 200.50,70.00 200.50,70.00              200.50,70.00 201.50,75.50 201.50,75.50              201.50,75.50 202.25,81.25 202.25,81.25              202.25,81.25 203.50,88.50 203.50,88.50              203.50,88.50 207.50,90.75 207.50,90.75              207.50,90.75 207.25,95.00 207.25,95.00              207.25,95.00 207.50,96.00 208.00,99.25              208.50,102.50 208.75,103.25 209.00,105.25              209.25,107.25 210.25,111.00 210.25,111.00              210.25,111.00 211.75,114.75 211.75,114.75              211.75,114.75 213.75,116.00 213.75,117.25              213.75,118.50 214.00,119.75 213.75,121.25              213.50,122.75 213.00,125.00 213.00,125.00              213.00,125.00 216.00,126.00 216.00,126.00              216.00,126.00 218.25,124.25 218.25,124.25              218.25,124.25 218.50,126.50 219.00,127.50              219.50,128.50 221.00,131.25 221.00,131.25              221.00,131.25 223.50,134.25 223.50,134.25              223.50,134.25 224.00,135.50 224.50,136.75              225.00,138.00 226.50,142.00 226.50,142.00              226.50,142.00 226.75,145.50 226.75,145.50              226.75,145.50 225.00,145.00 226.75,150.75              228.50,156.50 228.75,157.50 228.75,157.50              228.75,157.50 229.00,159.00 229.00,159.00              229.00,159.00 226.75,163.00 226.75,163.00              226.75,163.00 225.50,165.00 225.50,165.00              225.50,165.00 224.75,166.00 224.75,166.00              224.75,166.00 224.75,167.25 224.75,170.25              224.75,173.25 224.75,175.50 224.75,175.50              224.75,175.50 224.50,180.75 224.50,180.75              224.50,180.75 225.75,182.25 225.75,182.25              225.75,182.25 226.50,182.50 227.50,182.75              228.50,183.00 228.50,181.75 228.75,183.25              229.00,184.75 229.75,187.00 229.75,188.00              229.75,189.00 229.50,190.00 229.75,191.00              230.00,192.00 229.50,193.75 229.50,194.75              229.50,195.75 229.00,198.00 228.75,199.00              228.50,200.00 228.00,202.00 227.00,203.00              226.00,204.00 223.25,208.50 223.25,208.50              221.75,210.75 221.50,212.00 221.50,212.00              221.50,212.00 219.25,207.00 219.25,207.00              219.25,207.00 219.00,203.00 219.00,203.00              219.00,203.00 217.25,205.50 217.25,205.50              217.25,205.50 217.00,207.00 216.50,208.25              216.00,209.50 215.25,213.50 215.25,213.50              215.25,213.50 212.25,218.50 212.25,218.50              212.25,218.50 211.75,218.75 210.50,220.25              209.25,221.75 208.00,223.00 208.00,223.00              208.00,223.00 211.25,226.25 211.25,226.25              211.25,226.25 213.75,229.75 213.75,229.75              213.75,229.75 209.50,229.25 209.50,229.25              209.50,229.25 210.25,234.25 210.25,234.25              210.25,234.25 210.75,239.00 210.75,239.00              210.75,239.00 217.00,241.00 217.00,241.00              217.00,241.00 217.50,242.50 217.50,242.50              217.50,242.50 215.50,246.50 215.50,246.50              215.50,246.50 212.50,249.25 212.50,249.25              212.50,249.25 212.75,252.75 212.75,252.75              212.75,252.75 213.50,257.00 213.50,257.00              213.50,257.00 211.25,264.25 211.25,264.25              211.25,264.25 207.00,269.75 207.00,269.75              207.00,269.75 205.50,272.50 205.50,272.50              205.50,272.50 203.50,277.50 203.50,277.50              203.50,277.50 204.25,281.50 204.25,281.50              204.25,281.50 205.25,286.25 205.25,286.25              205.25,286.25 207.75,290.50 207.75,290.50 Z"
     style="stroke-width:0;stroke-miterlimit:4;stroke-dasharray:none;fill:#000000;fill-opacity:1" />
</svg>
